# xmcd CD database file
#
# Track frame offsets:
#	150
#	22719
#	39156
#	61229
#	89584
#	110554
#	134876
#	156154
#	172640
#	193112
#	230554
#	259032
#
# Disc length: 4770 seconds
#
# Revision: 0
# Processed by: cddbd v1.5PL3 Copyright (c) Steve Scherf et al.
# Submitted via: CDex 1.51
#
DISCID=9812a00c
DTITLE=Cassandra Wilson - Love phases dimensions - from the JMT years
DYEAR=2004
DGENRE=Jazz
TTITLE0=Woman on the edge
TTITLE1=I am waiting
TTITLE2=You belong to you
TTITLE3=Domination switch
TTITLE4=Never
TTITLE5=Love phases dimensions
TTITLE6=Electromagnolia
TTITLE7=Rock this calling
TTITLE8=Subatomic Blues
TTITLE9=Love and hate
TTITLE10=Dancing in dream time
TTITLE11=Copy Protection Data Track
EXTD=YEAR: 2004
EXTT0=
EXTT1=
EXTT2=
EXTT3=
EXTT4=
EXTT5=
EXTT6=
EXTT7=
EXTT8=
EXTT9=
EXTT10=
EXTT11=
PLAYORDER=
